<svg xmlns="http://www.w3.org/2000/svg" xmlns:xlink="http://www.w3.org/1999/xlink" width="1920" zoomAndPan="magnify" viewBox="0 0 1440 809.999993" height="1080" preserveAspectRatio="xMidYMid meet" version="1.0"><defs><g/><clipPath id="91f66f924f"><path d="M 679.296875 199.191406 L 760.871094 199.191406 L 760.871094 280.765625 L 679.296875 280.765625 Z M 679.296875 199.191406 " clip-rule="nonzero"/></clipPath><clipPath id="00f75e204a"><path d="M 720.082031 199.191406 C 697.558594 199.191406 679.296875 217.453125 679.296875 239.976562 C 679.296875 262.503906 697.558594 280.765625 720.082031 280.765625 C 742.609375 280.765625 760.871094 262.503906 760.871094 239.976562 C 760.871094 217.453125 742.609375 199.191406 720.082031 199.191406 Z M 720.082031 199.191406 " clip-rule="nonzero"/></clipPath><clipPath id="3fa96dae88"><path d="M 767.15625 126.835938 L 833.222656 126.835938 L 833.222656 192.902344 L 767.15625 192.902344 Z M 767.15625 126.835938 " clip-rule="nonzero"/></clipPath><clipPath id="543716a2f0"><path d="M 800.191406 126.835938 C 781.949219 126.835938 767.15625 141.625 767.15625 159.871094 C 767.15625 178.113281 781.949219 192.902344 800.191406 192.902344 C 818.433594 192.902344 833.222656 178.113281 833.222656 159.871094 C 833.222656 141.625 818.433594 126.835938 800.191406 126.835938 Z M 800.191406 126.835938 " clip-rule="nonzero"/></clipPath><clipPath id="a8aee6d681"><path d="M 699.578125 139.363281 L 740.589844 139.363281 L 740.589844 180.378906 L 699.578125 180.378906 Z M 699.578125 139.363281 " clip-rule="nonzero"/></clipPath><clipPath id="5433c8a4e8"><path d="M 720.082031 139.363281 C 708.757812 139.363281 699.578125 148.542969 699.578125 159.871094 C 699.578125 171.195312 708.757812 180.378906 720.082031 180.378906 C 731.410156 180.378906 740.589844 171.195312 740.589844 159.871094 C 740.589844 148.542969 731.410156 139.363281 720.082031 139.363281 Z M 720.082031 139.363281 " clip-rule="nonzero"/></clipPath><clipPath id="2a73748441"><path d="M 606.941406 126.835938 L 673.007812 126.835938 L 673.007812 192.902344 L 606.941406 192.902344 Z M 606.941406 126.835938 " clip-rule="nonzero"/></clipPath><clipPath id="e5e068026e"><path d="M 639.976562 126.835938 C 621.730469 126.835938 606.941406 141.625 606.941406 159.871094 C 606.941406 178.113281 621.730469 192.902344 639.976562 192.902344 C 658.21875 192.902344 673.007812 178.113281 673.007812 159.871094 C 673.007812 141.625 658.21875 126.835938 639.976562 126.835938 Z M 639.976562 126.835938 " clip-rule="nonzero"/></clipPath><clipPath id="c0282fd126"><path d="M 606.941406 287.054688 L 673.007812 287.054688 L 673.007812 353.121094 L 606.941406 353.121094 Z M 606.941406 287.054688 " clip-rule="nonzero"/></clipPath><clipPath id="a2e9003dfa"><path d="M 639.976562 287.054688 C 621.730469 287.054688 606.941406 301.84375 606.941406 320.085938 C 606.941406 338.328125 621.730469 353.121094 639.976562 353.121094 C 658.21875 353.121094 673.007812 338.328125 673.007812 320.085938 C 673.007812 301.84375 658.21875 287.054688 639.976562 287.054688 Z M 639.976562 287.054688 " clip-rule="nonzero"/></clipPath><clipPath id="4115e8dd34"><path d="M 767.15625 287.054688 L 833.222656 287.054688 L 833.222656 353.121094 L 767.15625 353.121094 Z M 767.15625 287.054688 " clip-rule="nonzero"/></clipPath><clipPath id="4ab8b084d2"><path d="M 800.191406 287.054688 C 781.949219 287.054688 767.15625 301.84375 767.15625 320.085938 C 767.15625 338.328125 781.949219 353.121094 800.191406 353.121094 C 818.433594 353.121094 833.222656 338.328125 833.222656 320.085938 C 833.222656 301.84375 818.433594 287.054688 800.191406 287.054688 Z M 800.191406 287.054688 " clip-rule="nonzero"/></clipPath><clipPath id="5c020dda23"><path d="M 779.683594 219.472656 L 820.699219 219.472656 L 820.699219 260.484375 L 779.683594 260.484375 Z M 779.683594 219.472656 " clip-rule="nonzero"/></clipPath><clipPath id="e5537d68d0"><path d="M 800.191406 219.472656 C 788.867188 219.472656 779.683594 228.652344 779.683594 239.976562 C 779.683594 251.304688 788.867188 260.484375 800.191406 260.484375 C 811.515625 260.484375 820.699219 251.304688 820.699219 239.976562 C 820.699219 228.652344 811.515625 219.472656 800.191406 219.472656 Z M 800.191406 219.472656 " clip-rule="nonzero"/></clipPath><clipPath id="151454750e"><path d="M 699.578125 299.578125 L 740.589844 299.578125 L 740.589844 340.59375 L 699.578125 340.59375 Z M 699.578125 299.578125 " clip-rule="nonzero"/></clipPath><clipPath id="e13cd8d5b9"><path d="M 720.082031 299.578125 C 708.757812 299.578125 699.578125 308.761719 699.578125 320.085938 C 699.578125 331.410156 708.757812 340.59375 720.082031 340.59375 C 731.410156 340.59375 740.589844 331.410156 740.589844 320.085938 C 740.589844 308.761719 731.410156 299.578125 720.082031 299.578125 Z M 720.082031 299.578125 " clip-rule="nonzero"/></clipPath><clipPath id="083d8065d6"><path d="M 619.46875 219.472656 L 660.480469 219.472656 L 660.480469 260.484375 L 619.46875 260.484375 Z M 619.46875 219.472656 " clip-rule="nonzero"/></clipPath><clipPath id="f71296127d"><path d="M 639.976562 219.472656 C 628.648438 219.472656 619.46875 228.652344 619.46875 239.976562 C 619.46875 251.304688 628.648438 260.484375 639.976562 260.484375 C 651.300781 260.484375 660.480469 251.304688 660.480469 239.976562 C 660.480469 228.652344 651.300781 219.472656 639.976562 219.472656 Z M 639.976562 219.472656 " clip-rule="nonzero"/></clipPath><clipPath id="3c5eaa05aa"><path d="M 837.902344 40.546875 L 919.472656 40.546875 L 919.472656 122.117188 L 837.902344 122.117188 Z M 837.902344 40.546875 " clip-rule="nonzero"/></clipPath><clipPath id="50670eb728"><path d="M 878.6875 40.546875 C 856.164062 40.546875 837.902344 58.804688 837.902344 81.332031 C 837.902344 103.859375 856.164062 122.117188 878.6875 122.117188 C 901.214844 122.117188 919.472656 103.859375 919.472656 81.332031 C 919.472656 58.804688 901.214844 40.546875 878.6875 40.546875 Z M 878.6875 40.546875 " clip-rule="nonzero"/></clipPath><clipPath id="bfa5dfeedc"><path d="M 837.902344 357.839844 L 919.472656 357.839844 L 919.472656 439.410156 L 837.902344 439.410156 Z M 837.902344 357.839844 " clip-rule="nonzero"/></clipPath><clipPath id="d3a6578e23"><path d="M 878.6875 357.839844 C 856.164062 357.839844 837.902344 376.097656 837.902344 398.625 C 837.902344 421.148438 856.164062 439.410156 878.6875 439.410156 C 901.214844 439.410156 919.472656 421.148438 919.472656 398.625 C 919.472656 376.097656 901.214844 357.839844 878.6875 357.839844 Z M 878.6875 357.839844 " clip-rule="nonzero"/></clipPath><clipPath id="0c15fd1709"><path d="M 520.691406 357.839844 L 602.265625 357.839844 L 602.265625 439.410156 L 520.691406 439.410156 Z M 520.691406 357.839844 " clip-rule="nonzero"/></clipPath><clipPath id="27a84fd229"><path d="M 561.480469 357.839844 C 538.953125 357.839844 520.691406 376.097656 520.691406 398.625 C 520.691406 421.148438 538.953125 439.410156 561.480469 439.410156 C 584.003906 439.410156 602.265625 421.148438 602.265625 398.625 C 602.265625 376.097656 584.003906 357.839844 561.480469 357.839844 Z M 561.480469 357.839844 " clip-rule="nonzero"/></clipPath><clipPath id="a17711261d"><path d="M 520.691406 40.546875 L 602.265625 40.546875 L 602.265625 122.117188 L 520.691406 122.117188 Z M 520.691406 40.546875 " clip-rule="nonzero"/></clipPath><clipPath id="6de46bec4c"><path d="M 561.480469 40.546875 C 538.953125 40.546875 520.691406 58.804688 520.691406 81.332031 C 520.691406 103.859375 538.953125 122.117188 561.480469 122.117188 C 584.003906 122.117188 602.265625 103.859375 602.265625 81.332031 C 602.265625 58.804688 584.003906 40.546875 561.480469 40.546875 Z M 561.480469 40.546875 " clip-rule="nonzero"/></clipPath><clipPath id="26410d4cd0"><path d="M 687.050781 48.300781 L 753.117188 48.300781 L 753.117188 114.367188 L 687.050781 114.367188 Z M 687.050781 48.300781 " clip-rule="nonzero"/></clipPath><clipPath id="f2c2a4494b"><path d="M 720.082031 48.300781 C 701.839844 48.300781 687.050781 63.089844 687.050781 81.332031 C 687.050781 99.574219 701.839844 114.367188 720.082031 114.367188 C 738.328125 114.367188 753.117188 99.574219 753.117188 81.332031 C 753.117188 63.089844 738.328125 48.300781 720.082031 48.300781 Z M 720.082031 48.300781 " clip-rule="nonzero"/></clipPath><clipPath id="aed4018e36"><path d="M 845.65625 206.945312 L 911.722656 206.945312 L 911.722656 273.011719 L 845.65625 273.011719 Z M 845.65625 206.945312 " clip-rule="nonzero"/></clipPath><clipPath id="30ea577ecc"><path d="M 878.6875 206.945312 C 860.445312 206.945312 845.65625 221.734375 845.65625 239.976562 C 845.65625 258.222656 860.445312 273.011719 878.6875 273.011719 C 896.929688 273.011719 911.722656 258.222656 911.722656 239.976562 C 911.722656 221.734375 896.929688 206.945312 878.6875 206.945312 Z M 878.6875 206.945312 " clip-rule="nonzero"/></clipPath><clipPath id="5600834fdd"><path d="M 528.445312 206.945312 L 594.511719 206.945312 L 594.511719 273.011719 L 528.445312 273.011719 Z M 528.445312 206.945312 " clip-rule="nonzero"/></clipPath><clipPath id="675b3376ce"><path d="M 561.480469 206.945312 C 543.234375 206.945312 528.445312 221.734375 528.445312 239.976562 C 528.445312 258.222656 543.234375 273.011719 561.480469 273.011719 C 579.722656 273.011719 594.511719 258.222656 594.511719 239.976562 C 594.511719 221.734375 579.722656 206.945312 561.480469 206.945312 Z M 561.480469 206.945312 " clip-rule="nonzero"/></clipPath><clipPath id="9dc29ec3e5"><path d="M 687.050781 365.589844 L 753.117188 365.589844 L 753.117188 431.65625 L 687.050781 431.65625 Z M 687.050781 365.589844 " clip-rule="nonzero"/></clipPath><clipPath id="37d675d3d6"><path d="M 720.082031 365.589844 C 701.839844 365.589844 687.050781 380.378906 687.050781 398.625 C 687.050781 416.867188 701.839844 431.65625 720.082031 431.65625 C 738.328125 431.65625 753.117188 416.867188 753.117188 398.625 C 753.117188 380.378906 738.328125 365.589844 720.082031 365.589844 Z M 720.082031 365.589844 " clip-rule="nonzero"/></clipPath><clipPath id="95c9f46176"><path d="M 775.003906 60.824219 L 816.015625 60.824219 L 816.015625 101.839844 L 775.003906 101.839844 Z M 775.003906 60.824219 " clip-rule="nonzero"/></clipPath><clipPath id="27cfbe982c"><path d="M 795.507812 60.824219 C 784.183594 60.824219 775.003906 70.007812 775.003906 81.332031 C 775.003906 92.65625 784.183594 101.839844 795.507812 101.839844 C 806.835938 101.839844 816.015625 92.65625 816.015625 81.332031 C 816.015625 70.007812 806.835938 60.824219 795.507812 60.824219 Z M 795.507812 60.824219 " clip-rule="nonzero"/></clipPath><clipPath id="d2dfc6bb7e"><path d="M 858.179688 144.023438 L 899.195312 144.023438 L 899.195312 185.039062 L 858.179688 185.039062 Z M 858.179688 144.023438 " clip-rule="nonzero"/></clipPath><clipPath id="c9f1a7bd64"><path d="M 878.6875 144.023438 C 867.363281 144.023438 858.179688 153.207031 858.179688 164.53125 C 858.179688 175.859375 867.363281 185.039062 878.6875 185.039062 C 890.011719 185.039062 899.195312 175.859375 899.195312 164.53125 C 899.195312 153.207031 890.011719 144.023438 878.6875 144.023438 Z M 878.6875 144.023438 " clip-rule="nonzero"/></clipPath><clipPath id="c2e0d0f45a"><path d="M 858.179688 294.832031 L 899.195312 294.832031 L 899.195312 335.84375 L 858.179688 335.84375 Z M 858.179688 294.832031 " clip-rule="nonzero"/></clipPath><clipPath id="c7d112c806"><path d="M 878.6875 294.832031 C 867.363281 294.832031 858.179688 304.011719 858.179688 315.339844 C 858.179688 326.664062 867.363281 335.84375 878.6875 335.84375 C 890.011719 335.84375 899.195312 326.664062 899.195312 315.339844 C 899.195312 304.011719 890.011719 294.832031 878.6875 294.832031 Z M 878.6875 294.832031 " clip-rule="nonzero"/></clipPath><clipPath id="df204c5dba"><path d="M 775.003906 378.117188 L 816.015625 378.117188 L 816.015625 419.132812 L 775.003906 419.132812 Z M 775.003906 378.117188 " clip-rule="nonzero"/></clipPath><clipPath id="6d6c4e0623"><path d="M 795.507812 378.117188 C 784.183594 378.117188 775.003906 387.300781 775.003906 398.625 C 775.003906 409.949219 784.183594 419.132812 795.507812 419.132812 C 806.835938 419.132812 816.015625 409.949219 816.015625 398.625 C 816.015625 387.300781 806.835938 378.117188 795.507812 378.117188 Z M 795.507812 378.117188 " clip-rule="nonzero"/></clipPath><clipPath id="3facf4ff53"><path d="M 624.214844 378.117188 L 665.230469 378.117188 L 665.230469 419.132812 L 624.214844 419.132812 Z M 624.214844 378.117188 " clip-rule="nonzero"/></clipPath><clipPath id="2e2900d384"><path d="M 644.722656 378.117188 C 633.398438 378.117188 624.214844 387.300781 624.214844 398.625 C 624.214844 409.949219 633.398438 419.132812 644.722656 419.132812 C 656.050781 419.132812 665.230469 409.949219 665.230469 398.625 C 665.230469 387.300781 656.050781 378.117188 644.722656 378.117188 Z M 644.722656 378.117188 " clip-rule="nonzero"/></clipPath><clipPath id="2b483bf69b"><path d="M 540.972656 144.023438 L 581.984375 144.023438 L 581.984375 185.039062 L 540.972656 185.039062 Z M 540.972656 144.023438 " clip-rule="nonzero"/></clipPath><clipPath id="0a324edc8d"><path d="M 561.480469 144.023438 C 550.152344 144.023438 540.972656 153.207031 540.972656 164.53125 C 540.972656 175.859375 550.152344 185.039062 561.480469 185.039062 C 572.804688 185.039062 581.984375 175.859375 581.984375 164.53125 C 581.984375 153.207031 572.804688 144.023438 561.480469 144.023438 Z M 561.480469 144.023438 " clip-rule="nonzero"/></clipPath><clipPath id="3a7ff3cf09"><path d="M 540.972656 294.917969 L 581.984375 294.917969 L 581.984375 335.933594 L 540.972656 335.933594 Z M 540.972656 294.917969 " clip-rule="nonzero"/></clipPath><clipPath id="15109620e9"><path d="M 561.480469 294.917969 C 550.152344 294.917969 540.972656 304.097656 540.972656 315.425781 C 540.972656 326.75 550.152344 335.933594 561.480469 335.933594 C 572.804688 335.933594 581.984375 326.75 581.984375 315.425781 C 581.984375 304.097656 572.804688 294.917969 561.480469 294.917969 Z M 561.480469 294.917969 " clip-rule="nonzero"/></clipPath><clipPath id="b14d42a069"><path d="M 624.152344 60.824219 L 665.164062 60.824219 L 665.164062 101.839844 L 624.152344 101.839844 Z M 624.152344 60.824219 " clip-rule="nonzero"/></clipPath><clipPath id="f5ccfe4ee6"><path d="M 644.65625 60.824219 C 633.332031 60.824219 624.152344 70.007812 624.152344 81.332031 C 624.152344 92.65625 633.332031 101.839844 644.65625 101.839844 C 655.984375 101.839844 665.164062 92.65625 665.164062 81.332031 C 665.164062 70.007812 655.984375 60.824219 644.65625 60.824219 Z M 644.65625 60.824219 " clip-rule="nonzero"/></clipPath></defs><g clip-path="url(#91f66f924f)"><g clip-path="url(#00f75e204a)"><path fill="#19c5e2" d="M 679.296875 199.191406 L 760.871094 199.191406 L 760.871094 280.765625 L 679.296875 280.765625 Z M 679.296875 199.191406 " fill-opacity="1" fill-rule="nonzero"/></g></g><g clip-path="url(#3fa96dae88)"><g clip-path="url(#543716a2f0)"><path fill="#0cc0df" d="M 767.15625 126.835938 L 833.222656 126.835938 L 833.222656 192.902344 L 767.15625 192.902344 Z M 767.15625 126.835938 " fill-opacity="1" fill-rule="nonzero"/></g></g><g clip-path="url(#a8aee6d681)"><g clip-path="url(#5433c8a4e8)"><path fill="#0cc0df" d="M 699.578125 139.363281 L 740.589844 139.363281 L 740.589844 180.378906 L 699.578125 180.378906 Z M 699.578125 139.363281 " fill-opacity="1" fill-rule="nonzero"/></g></g><g clip-path="url(#2a73748441)"><g clip-path="url(#e5e068026e)"><path fill="#0cc0df" d="M 606.941406 126.835938 L 673.007812 126.835938 L 673.007812 192.902344 L 606.941406 192.902344 Z M 606.941406 126.835938 " fill-opacity="1" fill-rule="nonzero"/></g></g><g clip-path="url(#c0282fd126)"><g clip-path="url(#a2e9003dfa)"><path fill="#0cc0df" d="M 606.941406 287.054688 L 673.007812 287.054688 L 673.007812 353.121094 L 606.941406 353.121094 Z M 606.941406 287.054688 " fill-opacity="1" fill-rule="nonzero"/></g></g><g clip-path="url(#4115e8dd34)"><g clip-path="url(#4ab8b084d2)"><path fill="#0cc0df" d="M 767.15625 287.054688 L 833.222656 287.054688 L 833.222656 353.121094 L 767.15625 353.121094 Z M 767.15625 287.054688 " fill-opacity="1" fill-rule="nonzero"/></g></g><g clip-path="url(#5c020dda23)"><g clip-path="url(#e5537d68d0)"><path fill="#0cc0df" d="M 779.683594 219.472656 L 820.699219 219.472656 L 820.699219 260.484375 L 779.683594 260.484375 Z M 779.683594 219.472656 " fill-opacity="1" fill-rule="nonzero"/></g></g><g clip-path="url(#151454750e)"><g clip-path="url(#e13cd8d5b9)"><path fill="#0cc0df" d="M 699.578125 299.578125 L 740.589844 299.578125 L 740.589844 340.59375 L 699.578125 340.59375 Z M 699.578125 299.578125 " fill-opacity="1" fill-rule="nonzero"/></g></g><g clip-path="url(#083d8065d6)"><g clip-path="url(#f71296127d)"><path fill="#0cc0df" d="M 619.46875 219.472656 L 660.480469 219.472656 L 660.480469 260.484375 L 619.46875 260.484375 Z M 619.46875 219.472656 " fill-opacity="1" fill-rule="nonzero"/></g></g><g clip-path="url(#3c5eaa05aa)"><g clip-path="url(#50670eb728)"><path fill="#0097b2" d="M 837.902344 40.546875 L 919.472656 40.546875 L 919.472656 122.117188 L 837.902344 122.117188 Z M 837.902344 40.546875 " fill-opacity="1" fill-rule="nonzero"/></g></g><g clip-path="url(#bfa5dfeedc)"><g clip-path="url(#d3a6578e23)"><path fill="#0097b2" d="M 837.902344 357.839844 L 919.472656 357.839844 L 919.472656 439.410156 L 837.902344 439.410156 Z M 837.902344 357.839844 " fill-opacity="1" fill-rule="nonzero"/></g></g><g clip-path="url(#0c15fd1709)"><g clip-path="url(#27a84fd229)"><path fill="#0097b2" d="M 520.691406 357.839844 L 602.265625 357.839844 L 602.265625 439.410156 L 520.691406 439.410156 Z M 520.691406 357.839844 " fill-opacity="1" fill-rule="nonzero"/></g></g><g clip-path="url(#a17711261d)"><g clip-path="url(#6de46bec4c)"><path fill="#0097b2" d="M 520.691406 40.546875 L 602.265625 40.546875 L 602.265625 122.117188 L 520.691406 122.117188 Z M 520.691406 40.546875 " fill-opacity="1" fill-rule="nonzero"/></g></g><g clip-path="url(#26410d4cd0)"><g clip-path="url(#f2c2a4494b)"><path fill="#0097b2" d="M 687.050781 48.300781 L 753.117188 48.300781 L 753.117188 114.367188 L 687.050781 114.367188 Z M 687.050781 48.300781 " fill-opacity="1" fill-rule="nonzero"/></g></g><g clip-path="url(#aed4018e36)"><g clip-path="url(#30ea577ecc)"><path fill="#0097b2" d="M 845.65625 206.945312 L 911.722656 206.945312 L 911.722656 273.011719 L 845.65625 273.011719 Z M 845.65625 206.945312 " fill-opacity="1" fill-rule="nonzero"/></g></g><g clip-path="url(#5600834fdd)"><g clip-path="url(#675b3376ce)"><path fill="#0097b2" d="M 528.445312 206.945312 L 594.511719 206.945312 L 594.511719 273.011719 L 528.445312 273.011719 Z M 528.445312 206.945312 " fill-opacity="1" fill-rule="nonzero"/></g></g><g clip-path="url(#9dc29ec3e5)"><g clip-path="url(#37d675d3d6)"><path fill="#0097b2" d="M 687.050781 365.589844 L 753.117188 365.589844 L 753.117188 431.65625 L 687.050781 431.65625 Z M 687.050781 365.589844 " fill-opacity="1" fill-rule="nonzero"/></g></g><g clip-path="url(#95c9f46176)"><g clip-path="url(#27cfbe982c)"><path fill="#0cc0df" d="M 775.003906 60.824219 L 816.015625 60.824219 L 816.015625 101.839844 L 775.003906 101.839844 Z M 775.003906 60.824219 " fill-opacity="1" fill-rule="nonzero"/></g></g><g clip-path="url(#d2dfc6bb7e)"><g clip-path="url(#c9f1a7bd64)"><path fill="#0cc0df" d="M 858.179688 144.023438 L 899.195312 144.023438 L 899.195312 185.039062 L 858.179688 185.039062 Z M 858.179688 144.023438 " fill-opacity="1" fill-rule="nonzero"/></g></g><g clip-path="url(#c2e0d0f45a)"><g clip-path="url(#c7d112c806)"><path fill="#0cc0df" d="M 858.179688 294.832031 L 899.195312 294.832031 L 899.195312 335.84375 L 858.179688 335.84375 Z M 858.179688 294.832031 " fill-opacity="1" fill-rule="nonzero"/></g></g><g clip-path="url(#df204c5dba)"><g clip-path="url(#6d6c4e0623)"><path fill="#0cc0df" d="M 775.003906 378.117188 L 816.015625 378.117188 L 816.015625 419.132812 L 775.003906 419.132812 Z M 775.003906 378.117188 " fill-opacity="1" fill-rule="nonzero"/></g></g><g clip-path="url(#3facf4ff53)"><g clip-path="url(#2e2900d384)"><path fill="#0cc0df" d="M 624.214844 378.117188 L 665.230469 378.117188 L 665.230469 419.132812 L 624.214844 419.132812 Z M 624.214844 378.117188 " fill-opacity="1" fill-rule="nonzero"/></g></g><g clip-path="url(#2b483bf69b)"><g clip-path="url(#0a324edc8d)"><path fill="#0cc0df" d="M 540.972656 144.023438 L 581.984375 144.023438 L 581.984375 185.039062 L 540.972656 185.039062 Z M 540.972656 144.023438 " fill-opacity="1" fill-rule="nonzero"/></g></g><g clip-path="url(#3a7ff3cf09)"><g clip-path="url(#15109620e9)"><path fill="#0cc0df" d="M 540.972656 294.917969 L 581.984375 294.917969 L 581.984375 335.933594 L 540.972656 335.933594 Z M 540.972656 294.917969 " fill-opacity="1" fill-rule="nonzero"/></g></g><g clip-path="url(#b14d42a069)"><g clip-path="url(#f5ccfe4ee6)"><path fill="#0cc0df" d="M 624.152344 60.824219 L 665.164062 60.824219 L 665.164062 101.839844 L 624.152344 101.839844 Z M 624.152344 60.824219 " fill-opacity="1" fill-rule="nonzero"/></g></g><g fill="#000000" fill-opacity="1"><g transform="translate(146.229377, 710.034449)"><g><path d="M 97.75 3.203125 C 77.75 3.203125 61.628906 1.054688 49.390625 -3.234375 C 37.148438 -7.535156 27.832031 -13.453125 21.4375 -20.984375 C 15.050781 -28.515625 10.757812 -37.191406 8.5625 -47.015625 L 74.453125 -47.015625 C 79.328125 -40.003906 87.09375 -36.5 97.75 -36.5 C 108.40625 -36.5 116.175781 -40.003906 121.0625 -47.015625 C 121.476562 -47.703125 121.6875 -48.320312 121.6875 -48.875 C 121.6875 -50.726562 119.226562 -52.117188 114.3125 -53.046875 C 109.394531 -53.984375 102.054688 -54.691406 92.296875 -55.171875 C 79.984375 -55.722656 67.054688 -57.03125 53.515625 -59.09375 C 23.335938 -63.757812 8.25 -75.890625 8.25 -95.484375 C 8.25 -97.140625 8.351562 -98.894531 8.5625 -100.75 C 10.757812 -110.582031 15.050781 -119.257812 21.4375 -126.78125 C 27.832031 -134.3125 37.148438 -140.222656 49.390625 -144.515625 C 61.628906 -148.816406 77.75 -150.96875 97.75 -150.96875 C 117.757812 -150.96875 133.878906 -148.816406 146.109375 -144.515625 C 158.347656 -140.222656 167.664062 -134.3125 174.0625 -126.78125 C 180.457031 -119.257812 184.753906 -110.582031 186.953125 -100.75 L 121.0625 -100.75 C 116.175781 -107.757812 108.40625 -111.265625 97.75 -111.265625 C 87.09375 -111.265625 79.328125 -107.757812 74.453125 -100.75 C 74.109375 -100.195312 73.9375 -99.679688 73.9375 -99.203125 C 73.9375 -97.546875 76.289062 -96.320312 81 -95.53125 C 85.707031 -94.75 92.648438 -94.082031 101.828125 -93.53125 C 111.003906 -92.976562 120.78125 -92.082031 131.15625 -90.84375 C 141.539062 -89.601562 151.253906 -87.453125 160.296875 -84.390625 C 169.335938 -81.335938 176.398438 -76.820312 181.484375 -70.84375 C 185.472656 -66.238281 187.46875 -60.394531 187.46875 -53.3125 C 187.46875 -51.320312 187.296875 -49.222656 186.953125 -47.015625 C 184.753906 -37.191406 180.457031 -28.515625 174.0625 -20.984375 C 167.664062 -13.453125 158.347656 -7.535156 146.109375 -3.234375 C 133.878906 1.054688 117.757812 3.203125 97.75 3.203125 Z M 97.75 3.203125 "/></g></g><g transform="translate(341.947488, 710.034449)"><g><path d="M 126.21875 0 L 64.140625 0 L 64.140625 -111.375 L 6.1875 -111.375 L 6.1875 -147.96875 L 184.171875 -147.96875 L 184.171875 -111.375 L 126.21875 -111.375 Z M 126.21875 0 "/></g></g><g transform="translate(532.303459, 710.034449)"><g><path d="M 218.515625 0 L 159.828125 0 C 157.148438 -3.707031 155.257812 -8.453125 154.15625 -14.234375 C 153.195312 -18.703125 151.753906 -23.082031 149.828125 -27.375 C 147.898438 -31.675781 144.582031 -35.25 139.875 -38.09375 C 135.164062 -40.945312 128.171875 -42.476562 118.890625 -42.6875 L 78.578125 -42.6875 L 78.578125 0 L 16.5 0 L 16.5 -147.96875 L 117.453125 -147.96875 C 141.578125 -147.96875 161.046875 -146.160156 175.859375 -142.546875 C 190.679688 -138.941406 201.492188 -133.273438 208.296875 -125.546875 C 215.109375 -117.816406 218.515625 -107.726562 218.515625 -95.28125 C 218.515625 -84.894531 216.15625 -76.160156 211.4375 -69.078125 C 206.726562 -62.003906 199.289062 -56.40625 189.125 -52.28125 C 198.945312 -48.226562 205.316406 -43.363281 208.234375 -37.6875 C 211.160156 -32.019531 212.96875 -25.78125 213.65625 -18.96875 C 214.34375 -12.925781 215.960938 -6.601562 218.515625 0 Z M 78.578125 -79.203125 L 114.046875 -79.296875 C 123.953125 -79.296875 131.753906 -79.742188 137.453125 -80.640625 C 143.160156 -81.535156 147.367188 -82.753906 150.078125 -84.296875 C 152.796875 -85.847656 154.535156 -87.566406 155.296875 -89.453125 C 156.054688 -91.347656 156.4375 -93.289062 156.4375 -95.28125 C 156.4375 -97.269531 156.054688 -99.226562 155.296875 -101.15625 C 154.535156 -103.082031 152.796875 -104.816406 150.078125 -106.359375 C 147.367188 -107.910156 143.160156 -109.132812 137.453125 -110.03125 C 131.753906 -110.925781 123.953125 -111.375 114.046875 -111.375 L 78.578125 -111.375 Z M 78.578125 -79.203125 "/></g></g><g transform="translate(759.060112, 710.034449)"><g><path d="M 78.578125 0 L 16.5 0 L 16.5 -147.96875 L 78.578125 -147.96875 Z M 78.578125 0 "/></g></g><g transform="translate(854.134978, 710.034449)"><g><path d="M 115.5 0 L 16.5 0 L 16.5 -147.96875 L 115.5 -147.96875 C 155.988281 -147.96875 185.097656 -142.300781 202.828125 -130.96875 C 217.128906 -121.820312 225.28125 -109.375 227.28125 -93.625 C 228.164062 -86.820312 228.609375 -80.257812 228.609375 -73.9375 C 228.609375 -67.675781 228.175781 -61.125 227.3125 -54.28125 C 226.457031 -47.445312 224.175781 -40.816406 220.46875 -34.390625 C 216.757812 -27.960938 210.863281 -22.171875 202.78125 -17.015625 C 194.707031 -11.859375 183.640625 -7.734375 169.578125 -4.640625 C 155.515625 -1.546875 137.488281 0 115.5 0 Z M 109.609375 -36.609375 C 141.171875 -36.609375 159.015625 -44.582031 163.140625 -60.53125 C 164.234375 -65 164.78125 -69.46875 164.78125 -73.9375 C 164.78125 -78.46875 164.210938 -82.953125 163.078125 -87.390625 C 161.941406 -91.828125 159.535156 -95.847656 155.859375 -99.453125 C 152.179688 -103.066406 146.664062 -105.957031 139.3125 -108.125 C 131.957031 -110.289062 122.054688 -111.375 109.609375 -111.375 L 78.578125 -111.375 L 78.578125 -36.609375 Z M 109.609375 -36.609375 "/></g></g><g transform="translate(1090.997202, 710.034449)"><g><path d="M 194.6875 0 L 16.5 0 L 16.5 -147.96875 L 186.546875 -147.96875 L 186.546875 -111.375 L 78.578125 -111.375 L 78.578125 -88.171875 L 169.84375 -88.171875 L 169.84375 -59.703125 L 78.578125 -59.703125 L 78.578125 -36.609375 L 194.6875 -36.609375 Z M 194.6875 0 "/></g></g></g></svg>